<?xml version="1.0" ?>
<!-- Uploaded to: SVG Repo, www.svgrepo.com, Generator: SVG Repo Mixer Tools -->
<svg fill="#000000" width="800px" height="800px" viewBox="0 0 32 32" xmlns="http://www.w3.org/2000/svg">
<title/>
<g id="Camera">
<path d="M26.49,30H5.5A3.35,3.35,0,0,1,3,29a3.35,3.35,0,0,1-1-2.48V5.5A3.35,3.35,0,0,1,3,3,3.35,3.35,0,0,1,5.5,2h21A3.35,3.35,0,0,1,29,3,3.35,3.35,0,0,1,30,5.5v21A3.52,3.52,0,0,1,26.49,30ZM16,22.89q8,0,8.18,0a1.88,1.88,0,0,0,1-.36,1.61,1.61,0,0,0,.63-1.4v-8.9a1.63,1.63,0,0,0-.63-1.4,2,2,0,0,0-1-.35c-.12,0-1.36,0-3.73,0l-.9-1.78H13.3l-.89,1.78H8l-.2,0a2,2,0,0,0-1,.35,1.65,1.65,0,0,0-.62,1.4v8.9a1.63,1.63,0,0,0,.62,1.4,2,2,0,0,0,1,.36Q8,22.89,16,22.89ZM10.63,9.56a3.27,3.27,0,0,0,.83-.05s0-.17,0-.4,0-.37,0-.4a2.8,2.8,0,0,0-.83-.05,2.89,2.89,0,0,0-.84.05s-.06.17-.06.4,0,.36.06.4A3.39,3.39,0,0,0,10.63,9.56ZM16.4,20.23a3.79,3.79,0,0,1-2-.55A4.19,4.19,0,0,1,13,18.23a4,4,0,0,1,0-4,4.08,4.08,0,0,1,1.45-1.44,3.88,3.88,0,0,1,2-.55,3.94,3.94,0,0,1,2,.55,4.08,4.08,0,0,1,1.45,1.44,4.1,4.1,0,0,1,0,4,4.19,4.19,0,0,1-1.45,1.45A3.84,3.84,0,0,1,16.4,20.23Zm0-.9A3,3,0,0,0,18,18.91a3.06,3.06,0,0,0,1.53-2.7,3,3,0,0,0-.41-1.55A3.19,3.19,0,0,0,18,13.53a3,3,0,0,0-1.58-.43,2.91,2.91,0,0,0-1.56.43,3.27,3.27,0,0,0-1.12,1.13,3,3,0,0,0-.42,1.55,3.06,3.06,0,0,0,.42,1.58,3.16,3.16,0,0,0,1.12,1.12A3,3,0,0,0,16.4,19.33ZM21.3,14a.89.89,0,0,1-.63-1.52.83.83,0,0,1,.63-.27.86.86,0,0,1,.63.27.83.83,0,0,1,.27.62.84.84,0,0,1-.27.64A.89.89,0,0,1,21.3,14Z"/>
</g>
</svg>